<?xml version="1.0" standalone="no"?>
<!DOCTYPE svg PUBLIC "-//W3C//DTD SVG 20010904//EN"
 "http://www.w3.org/TR/2001/REC-SVG-20010904/DTD/svg10.dtd">
<svg version="1.0" xmlns="http://www.w3.org/2000/svg"
 width="16.000000pt" height="16.000000pt" viewBox="0 0 16.000000 16.000000"
 preserveAspectRatio="xMidYMid meet">
<metadata>
Created by potrace 1.11, written by Peter Selinger 2001-2013
</metadata>
<g transform="translate(0.000000,16.000000) scale(0.006154,-0.006154)"
fill="#000000" stroke="none">
<path d="M1298 1861 l-3 -739 -129 501 c-71 276 -143 553 -159 615 l-30 112
-418 0 -419 0 0 -1030 0 -1030 260 0 260 0 0 777 c0 427 2 774 4 772 5 -4 396
-1530 396 -1543 0 -3 54 -6 120 -6 l120 0 0 -145 0 -145 650 0 650 0 0 1300 0
1300 -650 0 -650 0 -2 -739z m1162 -541 l0 -1030 -260 0 -260 0 -2 772 -3 772
-189 -740 c-104 -406 -194 -754 -198 -771 l-9 -33 -120 0 -119 0 3 413 2 412
158 605 c86 333 159 611 162 618 3 9 97 12 420 12 l415 0 0 -1030z"/>
</g>
</svg>
